<?xml version="1.0" encoding="UTF-8"?>
<!DOCTYPE svg PUBLIC "-//W3C//DTD SVG 1.1//EN" "http://www.w3.org/Graphics/SVG/1.1/DTD/svg11.dtd">
<!-- Creator: CorelDRAW 2020 (64-Bit) -->
<svg xmlns="http://www.w3.org/2000/svg" xml:space="preserve" width="8.5in" height="11in" version="1.1" style="shape-rendering:geometricPrecision; text-rendering:geometricPrecision; image-rendering:optimizeQuality; fill-rule:evenodd; clip-rule:evenodd"
viewBox="0 0 8500 11000"
 xmlns:xlink="http://www.w3.org/1999/xlink"
 xmlns:xodm="http://www.corel.com/coreldraw/odm/2003">
 <defs>
  <style type="text/css">
   <![CDATA[
    .fil0 {fill:#1A5D1E}
    .fil1 {fill:#4BAE4F}
   ]]>
  </style>
 </defs>
 <g id="Layer_x0020_1">
  <metadata id="CorelCorpID_0Corel-Layer"/>
  <g id="_1902190433312">
   <path class="fil0" d="M5138 5722l187.55 0 77.7 -310.8c2.17,-8.67 3.59,-14.33 5.74,-22.96l6.51 -22.2 86.12 355.96 189.46 0 148.76 -552.97c-1.73,-6.82 -37.98,-3.95 -51.16,-3.95 -36.36,0 -72.72,0 -109.09,0l-66.82 340.82c-3.27,16.33 -6.01,33.64 -9.73,49.6l-3.87 -11.44c-1.02,-4.13 -1.92,-7.47 -2.98,-12.33l-82.71 -345.98c-1.79,-7.24 -2.65,-20.67 -9.96,-20.67l-170.33 0c-8.41,0 -12.11,31.4 -15.7,45.54l-83.04 344.09c-4.89,-14.97 -60.19,-303.01 -67.6,-340.04 -3.32,-16.56 -6.02,-33.66 -9.73,-49.6l-170.33 0c0.19,8.61 6.23,26.32 8.76,35.26 3.6,12.72 5.67,22.03 9.27,34.74l75.74 278.32c5.91,22.52 12.38,47.06 18.92,69.11l38.51 139.48z"/>
   <path class="fil0" d="M6732.2 5450.24c0,-44.93 4.86,-68.11 30.61,-101.45 14.22,-18.41 47.83,-40.17 80.4,-40.17 41.75,0 75.48,9.03 99.54,40.17 4.8,6.23 8.57,9.98 12.76,17.86 27.35,51.56 24.53,133.91 -15.15,173.07 -31.42,31.01 -66.3,47.47 -113.31,37.68 -9.04,-1.88 -17.34,-5.16 -24.06,-8.48 -44.39,-21.94 -70.78,-61.27 -70.78,-118.69zm0 -208.6l0.11 -61.35c0.13,-8.13 1.89,-15.2 -5.85,-15.2l-158.85 0c-4.41,0 -5.74,1.33 -5.74,5.74l0 815.28 170.33 0 0 -338.74c7,4.69 11.76,16.95 27.36,30.06 32.68,27.48 77.9,52.24 125.75,52.24 55.04,0 78.96,-1.75 126.98,-26.13 84.41,-42.84 135.22,-148.75 135.22,-243.72 0,-67.43 -5.85,-125.17 -40.08,-181.92 -33.6,-55.72 -79.51,-96.42 -143.6,-112.85 -85.33,-21.88 -159.63,-0.04 -216.83,58.85 -6.44,6.64 -8,13.2 -14.79,17.75z"/>
   <path class="fil0" d="M6148.49 5308.62c24.21,0 41.6,0.32 63.8,12.76 76.02,42.61 77.8,148.49 44.71,202.93 -24.98,41.11 -79.56,64.92 -127.74,52.33 -80.54,-21.03 -109.43,-109.33 -86.3,-184.08 13.94,-45.04 56.72,-83.94 105.53,-83.94zm-49.76 421.04c54.89,0 88.78,-6.69 132.85,-37.47 27.77,-19.39 40.29,-41.28 45.13,-44.82l0 74.64 166.5 0c4.41,0 5.74,-1.33 5.74,-5.74l0 -545.43c0,-4.41 -1.33,-5.74 -5.74,-5.74l-160.76 0c-7.38,0 -5.96,6.1 -5.91,13.23l0.17 63.32 -6.52 -8.8c-32.91,-50.14 -104.92,-75.41 -163.81,-75.41 -78.67,0 -131.85,31.8 -178.48,83.71 -13.19,14.68 -22.35,31.67 -31.64,48.74 -28.87,53.01 -28.75,96.24 -34.63,149.22l4.4 60.11c2.98,20.24 6.86,38.24 12.35,54.63 12.14,36.26 29.06,68.31 52.36,95 32.55,37.3 61.93,56.36 109.84,71.97 15.73,5.13 38.21,8.83 58.15,8.83z"/>
   <path class="fil0" d="M4422.24 5222.5c0,31.39 8.89,71.39 24.46,96.11 83.29,132.24 321.94,104.07 321.94,204.36 0,21.78 -2.46,35.58 -21.56,51.17 -23.21,18.94 -73.42,20.92 -100.95,8.19 -9.13,-4.22 -14.54,-9.81 -21.54,-16.74 -16.28,-16.12 -17.89,-34.49 -22.45,-54.1 -55.37,0 -111.32,0.78 -166.62,-0.11 -18.11,-0.29 -15.12,-1.55 -13.13,22.92 0.98,12.1 4.31,25.2 7.08,35.03 31.13,110.79 149.03,160.33 256.87,160.33 66.22,0 131.81,-14.39 184.01,-55.22 65.35,-51.11 97.67,-143.5 66.98,-228.31 -6,-16.57 -19.26,-36.83 -31.34,-49.04 -6.35,-6.41 -13.63,-14.49 -20.31,-19.88 -3.61,-2.92 -6.98,-5.02 -10.97,-8.17 -28.08,-22.12 -87.44,-45.73 -122.57,-57.33 -21.07,-6.96 -39.7,-13.19 -59.77,-20.61 -18.94,-7 -38.07,-15.06 -55.19,-25.19 -59.3,-35.09 -34.36,-114.23 28.11,-114.23 27.79,0 48.8,3.97 66.55,21.48 11.07,10.93 18.02,20.02 20.66,36.76 1.18,7.52 -1.37,14.48 6.57,14.48l174.16 0c10,0 4.82,-14.37 4,-21.22 -3.11,-26.17 -8.31,-43.44 -18.73,-67.4 -21.95,-50.45 -75.45,-88.03 -127.59,-105.9 -44.2,-15.15 -79.03,-16 -127.53,-16 -69.06,0 -130.4,23.7 -169.55,54.37 -5.68,4.45 -8.63,7.65 -14.49,12.3 -5.92,4.7 -8,9.33 -13.56,15.15 -4.51,4.72 -9,10.65 -12.58,16.12 -19.53,29.83 -30.95,70 -30.95,110.67z"/>
   <path class="fil1" d="M1352.5 5722l70.81 0 0 -539.69c2.34,2.69 2.55,2.88 4.44,7.05l178.74 399.23c9.95,23.12 20.7,44 30.36,67.24l23.14 51.5c8.34,18.36 -3.8,14.67 54.22,14.67 6.69,0 11.47,-17.71 17.26,-30.59l91.8 -204.84c29.67,-66.06 60.54,-139.71 90.62,-204.1l30.79 -68.73c2.72,-6.54 11.5,-27.7 16.42,-33.35l0 541.61 70.81 0 0 -687.06 -76.55 0 -114.56 258.63c-20.61,50.71 -58.88,130.29 -82.01,184 -5.48,12.72 -10.55,24.35 -16.49,37.1l-41.47 92.49c-2.49,5.11 -6.26,13.16 -7.65,19.14 -7.23,-5.3 -45.78,-97.22 -51.13,-109.63l-211.48 -473.66c-2.17,-4.97 -0.99,-8.07 -7.24,-8.07l-70.81 0 0 687.06z"/>
   <path class="fil1" d="M2860.57 5268.43l0 -89.95 -70.81 0 0 543.52 70.81 0 0 -294.72c0,-113.21 54.93,-197.12 166.5,-197.12 116.18,0 160.76,80.29 160.76,195.21l0 296.64 68.9 0 0 -288.98c0,-76.74 18.74,-150.01 89.93,-185.66 11.61,-5.81 18.66,-8.93 33.98,-11.96 121.3,-23.97 201.44,45.58 201.44,167l0 319.6 65.07 0c4.41,0 5.74,-1.33 5.74,-5.74l0 -285.16c0,-65.19 -4.28,-113.76 -33.85,-167.11 -21.24,-38.32 -68.38,-75.55 -115.39,-87.47 -90.5,-22.95 -165.22,-2.85 -225.43,57.9 -12.74,12.85 -32.11,44.5 -36.8,64.63 -2.05,-2.35 -2.25,-2.54 -3.84,-5.73 -8.11,-16.27 -7.91,-22.71 -23.47,-43.51 -11.84,-15.83 -22.25,-26.89 -37.45,-39.1 -25.67,-20.61 -76.91,-41.1 -111.27,-41.83 -44.25,-0.95 -86.32,0.59 -126.99,22.37 -25.99,13.91 -43.96,30.85 -61.95,52.88l-11.2 17.51c-1.25,2 -1.12,1.85 -2.25,3.5 -2.67,3.9 -0.54,1.13 -2.43,3.3z"/>
   <path class="fil1" d="M3832.79 5454.07c0,-39.77 3.91,-64.89 15.07,-95.94 18.43,-51.31 51.97,-84.89 99.1,-107.59 13.5,-6.5 45.67,-15.88 61.91,-16.56 32.12,-1.35 10.33,-2.61 47.7,0.14 44.55,3.28 93.23,28.38 122.17,59.64 58.45,63.13 69.54,165.01 40.89,244.76 -9.38,26.12 -21.58,44.04 -37.93,63.5 -31.7,37.73 -84.9,64.48 -136.47,64.48 -57.26,0 -89.07,-6.07 -134,-38.24 -46.76,-33.48 -78.43,-104.48 -78.43,-174.19zm-70.81 -21.06c0,71.61 5.83,120.51 42.91,181.01 4.3,7.02 8.34,12.98 13.11,19.42 43.1,58.15 117.59,96.21 190.86,96.21 60.7,0 102.23,-7.2 147.77,-37.87 24.83,-16.72 44.45,-36.43 61.95,-60.53 3.44,-4.73 5.19,-8.1 8.1,-12.96 1.48,-2.48 1.87,-3.2 3.5,-6.07l4.51 -6.97 0 116.74 70.81 0 0 -543.52 -70.81 0 0 114.83 -5.13 -8.27c-2.11,-4.1 -2.65,-5.07 -4.78,-8.61 -11.81,-19.65 -32.49,-43.2 -50.48,-56.69 -14.16,-10.62 -33.85,-23.33 -50.05,-30.33 -61.31,-26.49 -160.48,-26.94 -222.17,6.7 -34.29,18.7 -64.3,40.17 -87.3,73.46 -27.62,40 -52.8,96.93 -52.8,163.45z"/>
   <path class="fil1" d="M2217.54 5419.62c4.41,-53.06 19.24,-96.75 55.02,-132.53 58.82,-58.82 143.7,-69.15 221.12,-38.35 17.76,7.06 45.54,23.93 56.07,37.7 24.86,32.52 36.92,44.08 45.4,94.31 1,5.89 0.8,13.52 1.89,21.14 3.94,27.36 0.6,17.73 -98.18,17.73l-281.33 0zm-70.81 11.48c0,71.61 5.32,125.69 44.78,184.87l20.56 27.29c3.36,4.16 3.73,5.25 7.83,9.4 21.24,21.46 46.68,40.7 76.64,53.5 142.98,61.07 327.04,4.66 365.01,-158.31l-74.64 0c-8.21,35.24 -31.01,66.15 -56.27,85.35 -57.14,43.41 -139.17,45.18 -206.48,16.65 -9.52,-4.04 -20.63,-11.17 -28.95,-16.98 -11.84,-8.27 -27.86,-22.84 -35.94,-34.86 -3.57,-5.3 -5.98,-8.03 -9.59,-13.37 -13.91,-20.57 -20.51,-41.04 -26.43,-65.44 -2.23,-9.21 -5.7,-31.39 -5.7,-42.15l449.74 0c0.19,-8.65 1.91,-7.61 1.91,-17.22 0,-75.59 -1.19,-122.45 -46.28,-189.12 -14.65,-21.65 -43.73,-47.87 -66.26,-61.96 -41.19,-25.76 -108.33,-44.91 -153.99,-38.43 -9.74,1.38 -19.11,0.06 -29.07,1.57 -11.07,1.68 -17.9,2.84 -27.7,4.83 -78.98,16.08 -146.38,72.03 -176.5,146.93 -11.03,27.43 -22.67,68.77 -22.67,107.47z"/>
  </g>
 </g>
</svg>
